<svg width="24" height="24" viewBox="0 0 24 24" fill="none" xmlns="http://www.w3.org/2000/svg">
<path d="M13.7813 11.9924C13.7813 11.0081 12.9844 10.2112 12 10.2112C11.0156 10.2112 10.2188 11.0081 10.2188 11.9924C10.2188 12.9768 11.0156 13.7737 12 13.7737C12.9844 13.7737 13.7813 12.9768 13.7813 11.9924Z" fill="#222222"/>
<path d="M13.7813 4.78149C13.7813 3.79712 12.9844 3.00024 12 3.00024C11.0156 3.00024 10.2188 3.79712 10.2188 4.78149C10.2188 5.76587 11.0156 6.56274 12 6.56274C12.9844 6.56274 13.7813 5.76587 13.7813 4.78149Z" fill="#222222"/>
<path d="M13.7812 19.219C13.7812 18.2346 12.9844 17.4377 12 17.4377C11.0156 17.4377 10.2187 18.2346 10.2187 19.219C10.2187 20.2034 11.0156 21.0002 12 21.0002C12.9844 21.0002 13.7812 20.2034 13.7812 19.219Z" fill="#222222"/>
</svg>
